<svg xmlns="http://www.w3.org/2000/svg" xmlns:xlink="http://www.w3.org/1999/xlink" viewBox="0 0 294.96 211.43"><defs><style>.cls-1,.cls-10,.cls-9{fill:none;}.cls-1,.cls-10,.cls-2,.cls-6,.cls-7,.cls-9{stroke:#231f20;stroke-miterlimit:10;}.cls-2,.cls-5{fill:#fff;}.cls-3,.cls-7{fill:#231f20;}.cls-4{fill:url(#New_Gradient_Swatch_6);}.cls-6{fill:url(#New_Gradient_Swatch_6-2);}.cls-8{fill:url(#radial-gradient);}.cls-9{stroke-width:0.25px;}.cls-10{stroke-width:2px;}.cls-11{fill:url(#linear-gradient);}</style><linearGradient id="New_Gradient_Swatch_6" x1="227.59" y1="63.07" x2="227.59" y2="31.71" gradientUnits="userSpaceOnUse"><stop offset="0" stop-color="#fed317"/><stop offset="0.25" stop-color="#f78f27"/><stop offset="0.3" stop-color="#f57b38"/><stop offset="0.44" stop-color="#f04665"/><stop offset="0.51" stop-color="#ee3176"/><stop offset="0.51" stop-color="#ed3277"/><stop offset="0.58" stop-color="#d24189"/><stop offset="0.64" stop-color="#bf4b96"/><stop offset="0.71" stop-color="#b4529d"/><stop offset="0.78" stop-color="#b054a0"/><stop offset="0.91" stop-color="#8853a2"/><stop offset="1" stop-color="#7353a3"/></linearGradient><linearGradient id="New_Gradient_Swatch_6-2" x1="198.31" y1="158.27" x2="294.46" y2="158.27" xlink:href="#New_Gradient_Swatch_6"/><radialGradient id="radial-gradient" cx="94.5" cy="124.48" r="10.9" gradientUnits="userSpaceOnUse"><stop offset="0.72" stop-color="#fed317"/><stop offset="0.81" stop-color="#f78f27"/><stop offset="0.83" stop-color="#f57b38"/><stop offset="0.89" stop-color="#f04665"/><stop offset="0.92" stop-color="#ee3176"/><stop offset="0.93" stop-color="#d23980"/><stop offset="0.94" stop-color="#b0428d"/><stop offset="0.96" stop-color="#954a97"/><stop offset="0.97" stop-color="#824f9d"/><stop offset="0.98" stop-color="#7752a2"/><stop offset="1" stop-color="#7353a3"/></radialGradient><linearGradient id="linear-gradient" x1="127.56" y1="53.06" x2="127.56" y2="212.7" gradientUnits="userSpaceOnUse"><stop offset="0" stop-color="#ee3176"/><stop offset="0.01" stop-color="#d93d84"/><stop offset="0.02" stop-color="#c24a94"/><stop offset="0.03" stop-color="#b5519d"/><stop offset="0.05" stop-color="#b054a0"/><stop offset="0.07" stop-color="#ad54a0"/><stop offset="0.08" stop-color="#a454a1"/><stop offset="0.1" stop-color="#9454a1"/><stop offset="0.11" stop-color="#7d53a3"/><stop offset="0.12" stop-color="#7353a3"/><stop offset="0.15" stop-color="#7552a2"/><stop offset="0.16" stop-color="#7c51a0"/><stop offset="0.17" stop-color="#874d9c"/><stop offset="0.18" stop-color="#984995"/><stop offset="0.19" stop-color="#ae438d"/><stop offset="0.19" stop-color="#ca3b83"/><stop offset="0.2" stop-color="#e93278"/><stop offset="0.2" stop-color="#ee3176"/><stop offset="0.27" stop-color="#ea3277"/><stop offset="0.33" stop-color="#e0357b"/><stop offset="0.38" stop-color="#cd3a82"/><stop offset="0.44" stop-color="#b4418b"/><stop offset="0.49" stop-color="#934a97"/><stop offset="0.54" stop-color="#7353a3"/><stop offset="0.58" stop-color="#7853a3"/><stop offset="0.63" stop-color="#8753a2"/><stop offset="0.69" stop-color="#9f54a1"/><stop offset="0.72" stop-color="#b054a0"/><stop offset="0.76" stop-color="#b3529e"/><stop offset="0.8" stop-color="#bc4d98"/><stop offset="0.82" stop-color="#cc448d"/><stop offset="0.85" stop-color="#e3377d"/><stop offset="0.86" stop-color="#ee3176"/></linearGradient></defs><g id="Layer_2" data-name="Layer 2"><g id="Final_Logos" data-name="Final Logos"><line class="cls-1" x1="170.36" y1="69.03" x2="199.14" y2="69.03"/><line class="cls-1" x1="173.35" y1="17.29" x2="231.25" y2="17.29"/><line class="cls-1" x1="238.32" y1="45.7" x2="282.83" y2="45.7"/><path class="cls-2" d="M264.85,37.35v.41c0,.38,0,.77,0,1.15s0,.67,0,1c-.05.88-.13,1.76-.25,2.63-.08.67-.18,1.34-.31,2-.15.84-.33,1.66-.54,2.47q-.39,1.53-.9,3c-.29.84-.61,1.67-1,2.48a35.8,35.8,0,0,1-2,4c-.56,1-1.17,1.9-1.81,2.81s-1.26,1.71-2,2.51a32.36,32.36,0,0,1-2.33,2.5,38.06,38.06,0,0,1-6.51,5.13A37.56,37.56,0,0,1,242.4,72a37.22,37.22,0,0,1-40.92-7.63c-.81-.79-1.59-1.63-2.32-2.5s-1.33-1.65-2-2.51-1.25-1.84-1.81-2.81a35.8,35.8,0,0,1-2-4c-.36-.81-.68-1.64-1-2.48s-.64-2-.9-3c-.21-.81-.39-1.63-.54-2.47-.13-.66-.23-1.33-.31-2-.12-.87-.2-1.75-.25-2.63,0-.33,0-.67,0-1s0-.77,0-1.15v-.41c0-.33,0-.67,0-1,0-.61.06-1.21.11-1.81,0-.17,0-.33,0-.5.06-.58.13-1.15.22-1.72,0-.17,0-.33.07-.5.09-.58.2-1.16.33-1.73,0-.17.06-.33.1-.5a37.27,37.27,0,0,1,72.71,0c0,.17.07.33.1.5.13.57.24,1.15.33,1.73,0,.17.05.33.07.5.09.57.16,1.14.22,1.72,0,.17,0,.33,0,.5.05.6.09,1.2.11,1.81C264.84,36.68,264.84,37,264.85,37.35Z"/><path class="cls-3" d="M255.13,37.45v.31c0,.28,0,.57,0,.85s0,.49,0,.74c0,.65-.09,1.3-.18,1.94s-.14,1-.23,1.48-.25,1.22-.4,1.82c-.19.76-.42,1.5-.67,2.22a19.49,19.49,0,0,1-.72,1.84,27.31,27.31,0,0,1-1.49,3c-.41.72-.87,1.4-1.34,2.08s-.93,1.26-1.44,1.85-1.12,1.26-1.72,1.85a26.86,26.86,0,0,1-2.19,1.94,30.28,30.28,0,0,1-2.63,1.85A28.89,28.89,0,0,1,238.54,63a27.63,27.63,0,0,1-21.89,0,28.3,28.3,0,0,1-3.54-1.85,30.28,30.28,0,0,1-2.63-1.85,28.65,28.65,0,0,1-2.19-1.94c-.6-.59-1.17-1.21-1.71-1.85s-1-1.22-1.45-1.85-.92-1.36-1.34-2.08a29.25,29.25,0,0,1-1.49-3c-.27-.6-.5-1.21-.72-1.84s-.47-1.46-.66-2.22c-.16-.6-.29-1.2-.4-1.82s-.17-1-.23-1.48-.15-1.29-.19-1.94l0-.74c0-.28,0-.57,0-.85v-.31c0-.24,0-.49,0-.74,0-.45,0-.89.08-1.34l0-.37c.05-.43.1-.85.16-1.27,0-.12,0-.24.06-.37.06-.43.14-.86.24-1.28,0-.12,0-.24.07-.37a27.54,27.54,0,0,1,53.74,0c0,.13,0,.25.07.37.1.42.18.85.25,1.28,0,.13,0,.25.05.37.07.42.12.84.16,1.27,0,.13,0,.25,0,.37,0,.45.07.89.08,1.34C255.12,37,255.12,37.21,255.13,37.45Z"/><path class="cls-4" d="M250.05,53.69c-.46.63-.93,1.26-1.44,1.85s-1.12,1.26-1.72,1.85h-38.6c-.6-.59-1.17-1.21-1.71-1.85s-1-1.22-1.45-1.85Zm-39.57,5.68a27.44,27.44,0,0,0,6.17,3.7h21.89a28.89,28.89,0,0,0,3.53-1.85,28.26,28.26,0,0,0,2.63-1.85Zm-9.56-14.78q.29,1.14.66,2.22h52c.25-.72.48-1.46.67-2.22Zm-.63-3.3c.06.5.13,1,.23,1.48h54.15c.09-.48.17-1,.23-1.48Zm-.22-2.68,0,.74h55c0-.25,0-.5,0-.74Zm55-1.9h-55c0,.25,0,.5,0,.74h55.07C255.12,37.21,255.12,37,255.1,36.71ZM255,35h-54.8l0,.37H255C255,35.25,255,35.13,255,35Zm-.21-1.64H200.41c0,.13,0,.25-.06.37h54.48C254.82,33.61,254.8,33.49,254.78,33.36Zm-.32-1.65H200.72c0,.13-.05.25-.07.37h53.88C254.51,32,254.49,31.84,254.46,31.71ZM202.3,48.65a29.25,29.25,0,0,0,1.49,3h47.6a27.31,27.31,0,0,0,1.49-3Z"/><circle class="cls-5" cx="242.39" cy="18.76" r="5.01"/><circle class="cls-5" cx="249.26" cy="27.19" r="1.86"/><g id="Stars"><g id="Saturn"><path class="cls-6" d="M219.35,161.74c-.07-.44-.11-1.12-.12-1.15l-.12-.08c-5.92-3.94-12.34-9.47-13.79-13.87a4.78,4.78,0,0,1-.06-3.35,5.38,5.38,0,0,1,3-2.77c7.57-3.47,26.78-.2,42.8,5.8,11.44,4.29,21.65,9.75,28.76,15.38,6.6,5.23,8.69,9.61,7.41,12.52a5.62,5.62,0,0,1-2.74,2.63c-4.78,2.44-14.46,2-24.13.18a25.37,25.37,0,0,0,7.74-13.17v-.05c0-4.14-6.45-8.91-12.75-11.3,0,0-.33-.09-.33-.07s.1.42.11.43c2.42,10-3.76,26.08-11.54,30.24-.5.26-.94.44-1,.47h1.06c.29,0,.57,0,.88,0s.7,0,1-.06a24.83,24.83,0,0,0,12.69-4.73c16.21,3.81,27.75,3.29,32.39,1.2a6.29,6.29,0,0,0,3.55-3.26,6.53,6.53,0,0,0-.5-5c-2.84-6.31-13.27-14.27-26.15-21A25.45,25.45,0,0,0,243.66,133h-.55l-.19,0c.23.15.47.29.71.43a24.44,24.44,0,0,1,9.23,10.69l-.75-.29-.57-.21c-20-7.53-40.58-10.32-49.15-6.47-1.92.87-3.29,2-3.82,3.36a6.52,6.52,0,0,0,.6,4.88c2.17,4.82,10.09,11.7,19.86,17.56l.6.36S219.44,162.36,219.35,161.74Z"/></g><g id="Stars-2" data-name="Stars"><path class="cls-7" d="M199.37,121.14h0a1,1,0,0,1-.23-.63h0a1,1,0,0,1,.35-.77h0a1,1,0,0,1,1.41.12h0a1,1,0,0,1,.24.64h0a1,1,0,0,1-.36.77h0a1,1,0,0,1-.64.23h0A1,1,0,0,1,199.37,121.14Zm79.33-2.43v-.13h0a1,1,0,0,1,.87-1h0a1,1,0,0,1,1.12.87h0s0,.08,0,.12h0a1,1,0,0,1-.88,1h-.13A1,1,0,0,1,278.7,118.71Zm-29-1.43a1,1,0,0,1-.91-1h0a.34.34,0,0,1,0-.1h0a1,1,0,0,1,1.08-.91h0a1,1,0,0,1,.91,1h0v.11h0a1,1,0,0,1-1,.91h-.09Zm-29.89-2.64a1,1,0,0,1-.91-1h0v-.07h0a1,1,0,0,1,1.09-.91h0a1,1,0,0,1,.91,1h0v.07h0a1,1,0,0,1-1,.91h-.09Zm49.9-12.46a1,1,0,0,1-.77-1h0a.91.91,0,0,1,0-.23h0a1,1,0,0,1,1.2-.74h0a1,1,0,0,1,.77,1h0a.83.83,0,0,1,0,.22h0a1,1,0,0,1-1,.77h0ZM240,101.82a1,1,0,0,1-.22-1.39h0a1,1,0,0,1,1.39-.23h0a1,1,0,0,1,.23,1.39h0a1,1,0,0,1-.81.42h0A1,1,0,0,1,240,101.82Z"/></g></g><g id="Launch"><path class="cls-3" d="M134.27,196.53H80.94c-17.5,0-30.4-5.19-42.49-17.22a16.53,16.53,0,0,1-3.09,11.44c-2.42,3.4-6,5.78-8.59,5.78H.18v-2H26.77c1.67,0,4.68-1.73,7-4.94a14.33,14.33,0,0,0,2-13.24l-1.56-4.52,3.24,3.51c12.41,13.45,25.43,19.19,43.53,19.19h53.33Z"/></g><g id="WHEEL"><rect class="cls-3" y="133.2" width="94.5" height="2"/><path class="cls-3" d="M84.42,132.17a5.88,5.88,0,0,1-4.58-7.25,12.91,12.91,0,0,1-4.75-.13,5.49,5.49,0,0,1-3.94-3.48A13.23,13.23,0,0,1,61,117.49l.71-.7a12.22,12.22,0,0,0,9.77,3.49l.46,0,.08.46a4.36,4.36,0,0,0,3.31,3.13,13.83,13.83,0,0,0,5.17,0l.85-.11-.33.8a4.87,4.87,0,0,0,3.58,6.67Z"/><path class="cls-3" d="M71.27,119.2l-1-.11a3.28,3.28,0,0,0-1-2.76,3.8,3.8,0,0,0-2.86-.94,4,4,0,0,0-2.67,1.39l-.76-.65a5,5,0,0,1,3.33-1.73,4.77,4.77,0,0,1,3.64,1.2A4.28,4.28,0,0,1,71.27,119.2Z"/><path class="cls-3" d="M80.29,122.94l-.94-.34a2,2,0,0,0-.79-2.21,3.35,3.35,0,0,0-2.64-.46,8.24,8.24,0,0,0-2.69,1.23l-.54-.84a8.93,8.93,0,0,1,3-1.37,4.34,4.34,0,0,1,3.43.63A3,3,0,0,1,80.29,122.94Z"/><path class="cls-3" d="M79.7,131.71a6.46,6.46,0,0,0-9.19-4l-.46-.89a7.48,7.48,0,0,1,10.62,4.65Z"/><path class="cls-3" d="M67.65,132.73a10.93,10.93,0,0,1-4.73-1.06c-2-1-3.25-2.52-3.34-4.15l1,0c.1,1.87,2.15,3,2.77,3.3a10.34,10.34,0,0,0,10.71-1.29l.64.77A11.17,11.17,0,0,1,67.65,132.73Z"/><path class="cls-3" d="M68.27,127.37a6.09,6.09,0,0,0-8.45-3.06c-.52.27-1,.75-.86,1.12l-1,.3c-.32-1,.52-1.87,1.34-2.3A7.09,7.09,0,0,1,69.19,127Z"/><path class="cls-3" d="M53,123.12a4.66,4.66,0,0,1-1.93-4.9,5.27,5.27,0,0,1,3.72-3.74A6,6,0,0,1,60,115.59l-.61.79a5,5,0,0,0-4.28-.93,4.23,4.23,0,0,0-3,3,3.65,3.65,0,0,0,1.5,3.83Z"/><path class="cls-3" d="M42,132.24a6.23,6.23,0,0,1,7.54-9.48l-.42.9a5.24,5.24,0,0,0-6.33,8Z"/><path class="cls-3" d="M51.67,132.75l-.54,0a6,6,0,0,1-5.47-4.84l1-.14a5,5,0,0,0,4.56,4,7.42,7.42,0,0,0,6-2.66l.75.66A8.57,8.57,0,0,1,51.67,132.75Z"/><path class="cls-3" d="M49.88,128.3l-1-.25a4.29,4.29,0,0,1,7.61-1.49l-.8.6a3.29,3.29,0,0,0-5.84,1.14Z"/><path class="cls-8" d="M94.5,135.38a10.9,10.9,0,1,1,10.89-10.9A10.91,10.91,0,0,1,94.5,135.38Zm0-18.3a7.4,7.4,0,1,0,7.39,7.4A7.41,7.41,0,0,0,94.5,117.08Z"/><path class="cls-3" d="M94.5,113.83a10.65,10.65,0,1,1-10.65,10.65A10.66,10.66,0,0,1,94.5,113.83m0,18.3a7.65,7.65,0,1,0-7.65-7.65,7.65,7.65,0,0,0,7.65,7.65m0-18.8a11.15,11.15,0,1,0,11.14,11.15A11.15,11.15,0,0,0,94.5,113.33Zm0,18.3a7.15,7.15,0,1,1,7.14-7.15,7.16,7.16,0,0,1-7.14,7.15Z"/></g><g id="LINE1"><rect class="cls-3" y="92.62" width="81.03" height="2"/></g><path class="cls-9" d="M30.89,167l-.26-.38"/><polygon class="cls-3" points="31.48 165.55 33.11 170.36 29.29 167.01 31.48 165.55"/><line class="cls-10" x1="188.2" y1="75.1" x2="266.98" y2="75.1"/><line class="cls-10" x1="151.55" y1="195.6" x2="264.85" y2="195.6"/><path class="cls-11" d="M156.58,102.92h-2v-3.5h2Zm-63.37-10v2h18.94v39.76h2V94.89h18.94v-2Zm55.87,19.17v2.12H138.35c-2.39,0-4.26,1.4-4.26,3.21v17.08h-2V111.26h2v2.2a6.83,6.83,0,0,1,4.26-1.4Zm7.5,22.59h-2V111.26h2Zm8.71,22.88h-2V112.26a1,1,0,0,1,1-1h16.53A3.78,3.78,0,0,1,184.6,115v17a3.78,3.78,0,0,1-3.77,3.78H165.29Zm0-44.27V133.8h15.54A1.78,1.78,0,0,0,182.6,132V115a1.78,1.78,0,0,0-1.78-1.77ZM67.61,51.43h-2V76.11h2Zm28,24.68h-17v-2h17c1.19,0,2.19-.66,2.19-1.43V66.46c0-.78-1-1.44-2.19-1.44H82.79c-2.31,0-4.19-1.54-4.19-3.43V54.87c0-1.9,1.88-3.44,4.19-3.44h17v2h-17c-1.19,0-2.19.66-2.19,1.44v6.72c0,.78,1,1.43,2.19,1.43H95.56c2.31,0,4.19,1.55,4.19,3.44v6.22C99.75,74.57,97.87,76.11,95.56,76.11Zm16.1,0a4.23,4.23,0,0,1-4.23-4.22V51.43h2V71.89a2.22,2.22,0,0,0,2.22,2.22l12.87,0a2.22,2.22,0,0,0,2.23-2.21V51.46h2V71.87a4.23,4.23,0,0,1-4.22,4.21Zm46.2-2-2.57,0V51.43h-2v.31a3.82,3.82,0,0,0-1.56-.32H137.54A3.39,3.39,0,0,0,134,54.59V73a3,3,0,0,0,.9,2.12,3.79,3.79,0,0,0,2.66,1.06l14.2,0a3.73,3.73,0,0,0,1.74-.42.69.69,0,0,0,.11.13,1,1,0,0,0,.7.29h0l3.58,0Zm-6.12,0-14.2,0a1.75,1.75,0,0,1-1.24-.48A1,1,0,0,1,136,73V54.59c0-.63.71-1.17,1.56-1.17h14.19c.85,0,1.56.54,1.56,1.17V72.93C153.29,73.57,152.58,74.11,151.74,74.11Zm31.45,2H167.5a3.81,3.81,0,0,1-3.8-3.81V7.4h2V72.3a1.81,1.81,0,0,0,1.8,1.81h15.69ZM42.1,77.65,26.48,41.23q-2-4.6-3.95-9.21t-4-9.2l-6.44-15L14,7l6.44,15,3.95,9.2q2,4.6,3.95,9.21L42.1,72.58,70.22,7l1.83.79ZM109.91,189.3l22.1-.11a3.5,3.5,0,0,0,3.08-3.44V168.26a2.68,2.68,0,0,0-2.64-3c-3.23,0-10.57,0-15.77-.07l-5.6,0c-1.91,0-2.08-.55-2.08-2.1V149c0-.74.63-1.89,1.58-1.93,1.76-.06,12.68,0,17.93,0h3.05a1.81,1.81,0,0,1,1.44,1.54v1.74h2v-1.74a3.74,3.74,0,0,0-3.44-3.54h-3.05c-5.66,0-16.21-.05-18,0A4,4,0,0,0,107,149v14c0,2,.48,4.09,4.08,4.1l5.59,0c5.2,0,12.55.07,15.78.07.18,0,.64,0,.64,1v17.49a1.62,1.62,0,0,1-1.09,1.44l-21.79.11c-.4-.31-1-.94-1-1.55V181h-2v4.71c0,2,2,3.27,2.22,3.4l.24.15Zm107.13,1H199.51a3.78,3.78,0,0,1-3.78-3.78v-17a3.78,3.78,0,0,1,3.78-3.78h17.53v2H199.52a1.78,1.78,0,0,0-1.78,1.78v17a1.78,1.78,0,0,0,1.78,1.78H217Zm-72.67,21.15h-2V166.17a1,1,0,0,1,1-1H159.9a3.78,3.78,0,0,1,3.78,3.77v17a3.79,3.79,0,0,1-3.78,3.78H144.37Zm0-44.26v20.54h15.54a1.78,1.78,0,0,0,1.78-1.78v-17a1.78,1.78,0,0,0-1.78-1.77ZM243,190.28h-18a3.26,3.26,0,0,1-3.26-3.26V169.52a3.77,3.77,0,0,1,3.77-3.78H238a5,5,0,0,1,5,5v4.9a5.2,5.2,0,0,1-5.19,5.19H223.66V187a1.26,1.26,0,0,0,.37.89,1.24,1.24,0,0,0,.89.37H243Zm-19.3-11.45h14.13a3.19,3.19,0,0,0,3.19-3.19v-4.9a3,3,0,0,0-3-3H225.44a1.78,1.78,0,0,0-1.77,1.78Zm-31.4,11.49-3.58,0h0a1,1,0,0,1-.7-.29.69.69,0,0,1-.11-.13,3.73,3.73,0,0,1-1.74.42l-14.2,0a3.79,3.79,0,0,1-2.66-1.06,3,3,0,0,1-.9-2.12V168.83a3.39,3.39,0,0,1,3.56-3.17h14.19a3.82,3.82,0,0,1,1.56.32v-.31h2v22.67l2.57,0Zm-4.59-3.15V168.83c0-.63-.71-1.17-1.56-1.17H171.92c-.85,0-1.56.54-1.56,1.17v18.36a1,1,0,0,0,.32.7,1.75,1.75,0,0,0,1.24.48l14.2,0C187,188.35,187.67,187.81,187.67,187.17Z"/></g></g></svg>