<svg xmlns="http://www.w3.org/2000/svg" xmlns:xlink="http://www.w3.org/1999/xlink" viewBox="0 0 97.44 51.1"><defs><style>.cls-1,.cls-2{fill:#231f20;stroke-miterlimit:10;}.cls-1{stroke:url(#linear-gradient);}.cls-2{stroke:url(#linear-gradient-2);}</style><linearGradient id="linear-gradient" x1="40.45" y1="2.56" x2="40.45" y2="51.1" gradientUnits="userSpaceOnUse"><stop offset="0" stop-color="#fed317"/><stop offset="0.25" stop-color="#f78f27"/><stop offset="0.3" stop-color="#f57b38"/><stop offset="0.44" stop-color="#f04665"/><stop offset="0.51" stop-color="#ee3176"/><stop offset="0.51" stop-color="#ed3277"/><stop offset="0.58" stop-color="#d24189"/><stop offset="0.64" stop-color="#bf4b96"/><stop offset="0.71" stop-color="#b4529d"/><stop offset="0.78" stop-color="#b054a0"/><stop offset="0.91" stop-color="#8853a2"/><stop offset="1" stop-color="#7353a3"/></linearGradient><linearGradient id="linear-gradient-2" x1="48.72" y1="0" x2="48.72" y2="47.45" xlink:href="#linear-gradient"/></defs><g id="Layer_2" data-name="Layer 2"><g id="Final_Logos" data-name="Final Logos"><path class="cls-1" d="M68.27,24.55H47.14a1.39,1.39,0,0,1-1.39-1.4V8.45c0-.77.7-1.18,1.48-1.17H67.85a1.4,1.4,0,0,1,1.39,1.4V11.4c1.76,0,4.75,0,4.75,0l0-6.65A1.67,1.67,0,0,0,72.3,3.06H7.5V7.28H38.33l.11,31.49L13.69,11.4H7.5L41.8,50.6H68.74c3,0,5.25-1.44,5.25-5.36v-15A5.72,5.72,0,0,0,68.27,24.55Zm.94,20.09a1.41,1.41,0,0,1-1.41,1.41H46.85a1.41,1.41,0,0,1-1.41-1.41V42.58H42.08V27a3.15,3.15,0,0,0,3.15,3.14H67.8a1.42,1.42,0,0,1,1.41,1.42Z"/><path class="cls-2" d="M70.94,23c2.5,0,4.4,2.87,4.4,3.95,0,0,25.14-17.21,21.17-24.5-3-5.46-34,1.26-54.72,8.64C30.86,15-1.45,30.17.59,40c1.55,7.41,19,7.94,35.06,6.07l-3-3.22c-12,.87-23.05-.12-24.72-4.08C6,34.26,31.57,22.32,48.77,14.84,64.42,8,87.53,2,89,5.71S70.94,23,70.94,23Z"/></g></g></svg>