<svg xmlns="http://www.w3.org/2000/svg" viewBox="0 0 174.31 57.96"><defs><style>.cls-1{fill:#fff;}</style></defs><g id="Layer_2" data-name="Layer 2"><g id="Layer_1-2" data-name="Layer 1"><path class="cls-1" d="M22.3,2.57q7.17,0,10.24,3.62A10.44,10.44,0,0,1,34.79,13a19.42,19.42,0,0,1-.28,3.12L32.38,28.38A16.54,16.54,0,0,1,27,38.29Q22.74,42,15.94,42H0L7,2.57Zm-3.46,8.55H15.28L11.39,33.47H16.6a5.51,5.51,0,0,0,4-1.4,8.08,8.08,0,0,0,2-4.57l1.59-9a12.12,12.12,0,0,0,.22-2.2C24.43,12.86,22.57,11.12,18.84,11.12Zm29,31.66q-11.4,0-11.4-7.88a14.5,14.5,0,0,1,.22-2.36l1.15-6.79a12.1,12.1,0,0,1,4.85-8.08q3.91-2.82,10.38-2.82,11,0,11,8.32a16.84,16.84,0,0,1-.22,2.63l-.65,3.89H46.51L46.29,31a7.76,7.76,0,0,0-.11,1.21q0,3,3.56,3A3.27,3.27,0,0,0,52,34.35a3.15,3.15,0,0,0,1.09-1.92l9.1.11Q60.36,42.79,47.88,42.78Zm6.57-16.43a7.39,7.39,0,0,0,.22-1.73A2.53,2.53,0,0,0,54,23a2.85,2.85,0,0,0-2.27-.82,4.36,4.36,0,0,0-2.85,1,5.4,5.4,0,0,0-1.78,3.12Zm40-5a5.66,5.66,0,0,1-1.09,3.35h-9a1.3,1.3,0,0,0,.44-1.1,1.38,1.38,0,0,0-.88-1.23,4.74,4.74,0,0,0-2.24-.47q-4.11,0-4.11,2.52c0,.66.51,1.13,1.53,1.43a25.12,25.12,0,0,0,3.73.71,42,42,0,0,1,4.38.79,7.77,7.77,0,0,1,3.73,2.06,5.55,5.55,0,0,1,1.53,4.11,7.72,7.72,0,0,1-3.64,6.9q-3.64,2.35-10.6,2.35t-9.76-2.24a5.84,5.84,0,0,1-2.19-4.82,10.34,10.34,0,0,1,.17-1.81l9.15-.11c-.08.51.22,1,.9,1.34a6.11,6.11,0,0,0,3,.58,7.23,7.23,0,0,0,2.84-.41,1.56,1.56,0,0,0,.88-1.56c0-.52-.51-.87-1.53-1.07s-2.28-.38-3.76-.52a38.17,38.17,0,0,1-4.43-.72,7.27,7.27,0,0,1-3.76-2.08A5.74,5.74,0,0,1,68.2,25.2a8.79,8.79,0,0,1,3.86-7.67q3.87-2.69,11.15-2.68Q94.45,14.85,94.44,21.36ZM108.68,35a4.62,4.62,0,0,0,2.25-.54l-.27,6.19a9,9,0,0,1-5.87,2.13c-3.32,0-5.47-.76-6.46-2.3a5.91,5.91,0,0,1-1-3.26,19.41,19.41,0,0,1,.22-3l3.29-18.51h9.31L107.1,32.92a3.4,3.4,0,0,0-.06.61C107,34.51,107.59,35,108.68,35ZM102,6.74q0-3.51,1.56-5.12A6.45,6.45,0,0,1,108.36,0c3.06,0,4.6,1.35,4.6,4.05q0,3.45-1.56,5c-1.05,1.06-2.68,1.59-4.91,1.59Q101.95,10.68,102,6.74ZM132.87,53.9A13.92,13.92,0,0,1,123,58q-5.54,0-8-2a6.58,6.58,0,0,1-2.43-5.31q0-4.83,6.13-8.38-4.65-1.49-4.65-7.07a18.64,18.64,0,0,1,.27-3l1.1-6.41a13.49,13.49,0,0,1,4-7.86A11.66,11.66,0,0,1,127.77,15q5.07,0,6.93,2.46l.33-1.75h8.17l-4.83,27.22A19,19,0,0,1,132.87,53.9Zm-8.57-3.78q3.56,0,4.65-6.46l.55-3.18q-7.62,3.57-7.62,7.18a2.49,2.49,0,0,0,.64,1.78A2.26,2.26,0,0,0,124.3,50.12ZM123.91,31a6.91,6.91,0,0,0-.11,1.37,2.54,2.54,0,0,0,.82,1.73,3.78,3.78,0,0,0,2.77.85,4.46,4.46,0,0,0,3.37-1.54l1.64-9.2a3,3,0,0,0-2.9-1.37,4.78,4.78,0,0,0-3.34,1.09,5.06,5.06,0,0,0-1.54,3Zm38.51-5.75c0-1.57-.76-2.36-2.27-2.36a4.75,4.75,0,0,0-3.75,1.7L153.33,42H144l4.65-26.35h8.66l-.6,3.23a10,10,0,0,1,8.16-4q4.92,0,6.41,2.41a6.62,6.62,0,0,1,.93,3.51,23.43,23.43,0,0,1-.27,3.67l-1.48,8.43a3.4,3.4,0,0,0-.06.61c0,1,.55,1.47,1.64,1.47a4.62,4.62,0,0,0,2.25-.54L174,40.65a9,9,0,0,1-5.87,2.13q-7.44,0-7.45-6.24a14.5,14.5,0,0,1,.22-2.36l1.32-7.28A10.53,10.53,0,0,0,162.42,25.2Z"/></g></g></svg>