<svg xmlns="http://www.w3.org/2000/svg" viewBox="0 0 327.37 55.38"><defs><style>.cls-1{fill:#fff;}</style></defs><g id="Layer_2" data-name="Layer 2"><g id="Layer_1-2" data-name="Layer 1"><path class="cls-1" d="M18.52,27.45H12l-2.14,12H0L7,0H23.67q6.18,0,8.81,2.85A8.16,8.16,0,0,1,34.4,8.44a13.75,13.75,0,0,1-.22,2.41L33.09,17a11.61,11.61,0,0,1-4.82,7.47A16,16,0,0,1,18.52,27.45Zm1.69-18.9H15.28L13.48,18.9h4.87c3,0,4.73-1.33,5.21-4l.38-2.25a6.38,6.38,0,0,0,.11-1.31,3,3,0,0,0-.82-1.81A3.82,3.82,0,0,0,20.21,8.55ZM61.68,18.68a10.65,10.65,0,0,1-.63,3.62,10.84,10.84,0,0,1-1.23,2.57l-.6.77H51a4.08,4.08,0,0,0,1.36-3.13,2.19,2.19,0,0,0-.63-1.61A2.32,2.32,0,0,0,50,20.27a4,4,0,0,0-3.23,1.86L43.66,39.44H34.35L39,13.09h8.66L47,16.76q3.12-4.44,7.56-4.43A7.49,7.49,0,0,1,59.9,14,6.14,6.14,0,0,1,61.68,18.68Zm12.05,9a12,12,0,0,0-.16,2c0,1.75,1,2.63,3,2.63a5.27,5.27,0,0,0,4-1.7l3.06-17.48h9.32L88.09,40.32a19.11,19.11,0,0,1-5.51,11,13.94,13.94,0,0,1-9.83,4.05q-5.53,0-8-2A6.59,6.59,0,0,1,62.34,48q0-4.65,5.75-8.27c-2.08-.51-3.4-1.55-3.94-3.12a8.35,8.35,0,0,1-.5-3,20.08,20.08,0,0,1,.28-3.34L67,13.09h9.31ZM74,47.55c2.37,0,3.92-2.16,4.65-6.46l.55-3.18q-7.6,3.56-7.61,7.17a2.54,2.54,0,0,0,.63,1.79A2.31,2.31,0,0,0,74,47.55Zm65.24-34.46A19.9,19.9,0,0,1,140,19.2a28.33,28.33,0,0,1-.93,7.31,25.66,25.66,0,0,1-2.82,6.66A14.37,14.37,0,0,1,131,38.26a15.2,15.2,0,0,1-7.75,2q-6.58,0-8.77-3.67a12.63,12.63,0,0,1-8.82,3.67c-4.38,0-7.4-.93-9-2.79A8.2,8.2,0,0,1,95,31.88a22.84,22.84,0,0,1,.44-4.27L98,13.09h9.31l-2.57,14.57a7.72,7.72,0,0,0-.17,1.48q0,3.13,3.24,3.13a3.7,3.7,0,0,0,3.39-2,21.52,21.52,0,0,0,2-6.82L115,13.09h9.31l-2.57,14.57a7.72,7.72,0,0,0-.17,1.48q0,3.13,3.23,3.13,5.7,0,5.7-12a49.25,49.25,0,0,0-.44-6.19l-.16-1ZM168.83,31a1.27,1.27,0,0,0,1.45,1.42,4.92,4.92,0,0,0,2.44-.55l-.27,6.19a9.12,9.12,0,0,1-5.92,2.14c-4,0-6.24-1.46-6.68-4.38a8.91,8.91,0,0,1-8,4.38q-9,0-9-7.72a16.56,16.56,0,0,1,.28-2.91l1.15-6.41a13.64,13.64,0,0,1,4-7.86,11.6,11.6,0,0,1,8.22-2.93q5.07,0,6.87,2.36l.28-1.65H172l-3.07,17.26A3.68,3.68,0,0,0,168.83,31Zm-16.21-2.63a6.16,6.16,0,0,0-.11,1.37,2.47,2.47,0,0,0,.82,1.72,3.73,3.73,0,0,0,2.77.85,4.45,4.45,0,0,0,3.36-1.53l1.65-9.21c-.4-.91-1.35-1.37-2.85-1.37-2.81,0-4.46,1.36-4.93,4.06Zm35.22,11.83q-6.36,0-9.15-2.85a7.55,7.55,0,0,1-2.08-5.59,14.57,14.57,0,0,1,.22-2.46l3.72-21.2,10-4.17L189,13.09h15.12l-1.37,7.73H187.62L186.53,27a8.81,8.81,0,0,0-.22,1.86q0,3.45,3.28,3.45a3.59,3.59,0,0,0,2.93-1.48,8.57,8.57,0,0,0,1.62-3.94h9.09Q200.94,40.21,187.84,40.21Zm36-17.59a2,2,0,0,0-2.27-2.35,4.75,4.75,0,0,0-3.75,1.7l-3.07,17.47h-9.31l4.65-26.35h8.66l-.61,3.24a10.07,10.07,0,0,1,8.17-4q4.92,0,6.41,2.41a6.61,6.61,0,0,1,.93,3.5,22.16,22.16,0,0,1-.28,3.67l-1.48,8.44a4.54,4.54,0,0,0,0,.6c0,1,.55,1.48,1.64,1.48a4.52,4.52,0,0,0,2.25-.55l-.27,6.19a8.91,8.91,0,0,1-5.87,2.14q-7.44,0-7.45-6.25a14.38,14.38,0,0,1,.22-2.35l1.32-7.29A10.34,10.34,0,0,0,223.83,22.62Zm31.5-10.29c3.94,0,6.92.85,8.93,2.57a7,7,0,0,1,2.35,5.64,14.14,14.14,0,0,1-.27,2.63l-1.15,6.41q-1,5.81-4.85,8.22t-10.16,2.41q-6.36,0-9.31-2.41a6.63,6.63,0,0,1-2.19-5.42,16.28,16.28,0,0,1,.27-2.8l1.15-6.41Q242,12.33,255.33,12.33Zm1.48,11.94a7.63,7.63,0,0,0,.11-1.4,3.51,3.51,0,0,0-.71-1.89,2.83,2.83,0,0,0-2.5-1,4.08,4.08,0,0,0-3,1.18,5.47,5.47,0,0,0-1.54,3.15l-.71,4.11a7.51,7.51,0,0,0-.11,1.39,3.24,3.24,0,0,0,.71,1.84,2.88,2.88,0,0,0,2.5,1,4,4,0,0,0,3-1.23,5.6,5.6,0,0,0,1.54-3Zm40.43-5.48a5.62,5.62,0,0,1-1.1,3.34h-9A1.28,1.28,0,0,0,287.6,21a1.41,1.41,0,0,0-.88-1.24,4.79,4.79,0,0,0-2.25-.46q-4.11,0-4.11,2.52c0,.65.52,1.13,1.54,1.42a23.74,23.74,0,0,0,3.72.71,42.68,42.68,0,0,1,4.39.8,7.67,7.67,0,0,1,3.72,2.05A5.59,5.59,0,0,1,295.27,31a7.7,7.7,0,0,1-3.65,6.9Q288,40.21,281,40.21T271.27,38a5.83,5.83,0,0,1-2.19-4.82,10.48,10.48,0,0,1,.16-1.81l9.15-.1c-.07.51.23.95.91,1.34a6.2,6.2,0,0,0,3,.57,7.07,7.07,0,0,0,2.85-.41,1.56,1.56,0,0,0,.88-1.56c0-.51-.51-.87-1.54-1.07s-2.27-.37-3.75-.52a36,36,0,0,1-4.44-.71,7.28,7.28,0,0,1-3.75-2.08A5.76,5.76,0,0,1,271,22.62,8.75,8.75,0,0,1,274.86,15q3.86-2.69,11.15-2.69Q297.23,12.27,297.24,18.79ZM311,40.21q-11.4,0-11.4-7.89a14.6,14.6,0,0,1,.22-2.36L301,23.17a11.83,11.83,0,0,1,4.79-8.05,17.06,17.06,0,0,1,9.95-2.85q11.67,0,11.67,8.11a11.29,11.29,0,0,1-.41,3.15,5.44,5.44,0,0,1-.85,1.89l-.44.55h-9.31a3.7,3.7,0,0,0,1.36-2.85,2.61,2.61,0,0,0-3-3,4.62,4.62,0,0,0-3,1,5.12,5.12,0,0,0-1.64,3.18l-.71,4a4.78,4.78,0,0,0-.11,1q0,2.89,3.61,2.9a3.33,3.33,0,0,0,2.17-.77,2.81,2.81,0,0,0,1.12-1.69l9.09.1Q323.48,40.21,311,40.21Zm6.65-31.35h-4.89l1.77-5.78h5.42Zm-29.74,0H283l1.78-5.78h5.41Z"/></g></g></svg>