<svg xmlns="http://www.w3.org/2000/svg" viewBox="0 0 176.83 42.35"><defs><style>.cls-1{fill:#fff;}</style></defs><g id="Layer_2" data-name="Layer 2"><g id="Layer_1-2" data-name="Layer 1"><path class="cls-1" d="M22.84,2.14c4.17,0,7.12.91,8.88,2.74a7.34,7.34,0,0,1,2,5.25,12.6,12.6,0,0,1-.22,2.31l-.77,4.27a13.67,13.67,0,0,1-2.27,5.75,9.64,9.64,0,0,1-3.59,3.12l5,16H20.76l-4.6-14.74h-3.4L10.52,41.58H0L7,2.14Zm-3.45,8.54H15.28l-1.42,9.53h3.83c1.94,0,3.33-.46,4.17-1.39a5.32,5.32,0,0,0,1.26-3.7Q23.12,10.68,19.39,10.68ZM47.17,42.35q-11.4,0-11.4-7.89A13.46,13.46,0,0,1,36,32.1l1.15-6.79A12.1,12.1,0,0,1,42,17.23q3.91-2.82,10.38-2.82,11,0,11,8.32a16.75,16.75,0,0,1-.22,2.63l-.66,3.89H45.8l-.22,1.26a6.71,6.71,0,0,0-.11,1.21c0,2,1.18,3,3.56,3a3.26,3.26,0,0,0,2.24-.82A3.12,3.12,0,0,0,52.37,32l9.09.11Q59.66,42.35,47.17,42.35Zm6.57-16.44A7.31,7.31,0,0,0,54,24.19a2.53,2.53,0,0,0-.71-1.62A2.87,2.87,0,0,0,51,21.75a4.45,4.45,0,0,0-2.85,1,5.51,5.51,0,0,0-1.78,3.12Zm22.79,7.23A1.27,1.27,0,0,0,78,34.57,5,5,0,0,0,80.42,34l-.28,6.19a9.15,9.15,0,0,1-5.91,2.14c-3.33,0-5.48-.77-6.47-2.31a5.93,5.93,0,0,1-.93-3.23,18.27,18.27,0,0,1,.22-3.06L73,0h9.31L76.58,32.49A4.62,4.62,0,0,0,76.53,33.14Zm33,0A1.28,1.28,0,0,0,111,34.57a5,5,0,0,0,2.43-.55l-.27,6.19a9.15,9.15,0,0,1-5.92,2.14q-6,0-6.68-4.39a8.9,8.9,0,0,1-8,4.39q-9,0-9-7.73a16.55,16.55,0,0,1,.28-2.9l1.15-6.41a13.58,13.58,0,0,1,4-7.86,11.6,11.6,0,0,1,8.22-2.93q5.07,0,6.88,2.35l.27-1.64h8.33l-3.07,17.26A3.49,3.49,0,0,0,109.5,33.14ZM93.29,30.51a6.91,6.91,0,0,0-.11,1.37A2.5,2.5,0,0,0,94,33.61a3.78,3.78,0,0,0,2.77.85,4.44,4.44,0,0,0,3.37-1.54l1.64-9.2c-.4-.91-1.35-1.37-2.85-1.37q-4.22,0-4.93,4ZM143,34.57a4.63,4.63,0,0,0,2.25-.55L145,40.21a9.54,9.54,0,0,1-6.3,2.14c-2.48,0-4.32-.66-5.5-2s-2.11-3.52-2.77-6.62l-.16-.77q-1.16.17-3.45.27l-1.48,8.33H116L123.36,0h9.32L129.5,18a11.26,11.26,0,0,1,8.76-3.56c2.49,0,4.32.61,5.51,1.84a6.72,6.72,0,0,1,1.78,4.9q0,5.91-6.19,9.26l.6,2A2.83,2.83,0,0,0,143,34.57Zm-9.48-12.66a6.71,6.71,0,0,0-5.26,2.8l-.6,3.61Q135.81,28,135.8,24a2,2,0,0,0-.58-1.5A2.23,2.23,0,0,0,133.55,21.91Zm43.28-1a5.64,5.64,0,0,1-1.1,3.34h-9a1.3,1.3,0,0,0,.44-1.1,1.38,1.38,0,0,0-.88-1.23,4.74,4.74,0,0,0-2.24-.47c-2.74,0-4.11.85-4.11,2.52,0,.66.51,1.14,1.53,1.43a24.87,24.87,0,0,0,3.73.71,42,42,0,0,1,4.38.79A7.69,7.69,0,0,1,173.32,29a5.52,5.52,0,0,1,1.54,4.11,7.7,7.7,0,0,1-3.65,6.9c-2.42,1.57-6,2.36-10.59,2.36s-7.89-.75-9.76-2.25a5.83,5.83,0,0,1-2.19-4.82,10.43,10.43,0,0,1,.17-1.81l9.15-.11c-.08.51.22,1,.9,1.34a6.08,6.08,0,0,0,3,.58,7.23,7.23,0,0,0,2.84-.41,1.56,1.56,0,0,0,.88-1.56c0-.51-.51-.87-1.53-1.07s-2.28-.37-3.76-.52a40,40,0,0,1-4.43-.71,7.36,7.36,0,0,1-3.76-2.09,5.72,5.72,0,0,1-1.53-4.16,8.79,8.79,0,0,1,3.86-7.67q3.87-2.68,11.15-2.68Q176.84,14.41,176.83,20.93Z"/></g></g></svg>