<svg xmlns="http://www.w3.org/2000/svg" viewBox="0 0 266.56 57.52"><defs><style>.cls-1{fill:#fff;}</style></defs><g id="Layer_2" data-name="Layer 2"><g id="Layer_1-2" data-name="Layer 1"><path class="cls-1" d="M22.84,2.14c4.17,0,7.12.91,8.88,2.74a7.34,7.34,0,0,1,2,5.25,12.6,12.6,0,0,1-.22,2.31l-.77,4.27a13.67,13.67,0,0,1-2.27,5.75,9.64,9.64,0,0,1-3.59,3.12l5,16H20.76l-4.6-14.74h-3.4L10.52,41.58H0L7,2.14Zm-3.45,8.54H15.28l-1.42,9.53h3.83c1.94,0,3.33-.46,4.17-1.39a5.32,5.32,0,0,0,1.26-3.7Q23.12,10.68,19.39,10.68Zm32.82,3.78q5.91,0,8.93,2.58a7,7,0,0,1,2.35,5.64,14.23,14.23,0,0,1-.27,2.63l-1.15,6.41Q61,37.53,57.22,39.94T47.06,42.35c-4.24,0-7.34-.81-9.32-2.41a6.65,6.65,0,0,1-2.19-5.43,15.31,15.31,0,0,1,.28-2.79L37,25.31Q38.89,14.46,52.21,14.46ZM53.69,26.4a7.62,7.62,0,0,0,.1-1.39,3.38,3.38,0,0,0-.71-1.89,2.77,2.77,0,0,0-2.49-1,4.13,4.13,0,0,0-3,1.17,5.59,5.59,0,0,0-1.53,3.15l-.71,4.11a6.83,6.83,0,0,0-.11,1.4A3.24,3.24,0,0,0,46,33.75a2.9,2.9,0,0,0,2.49,1,4,4,0,0,0,3-1.23,5.69,5.69,0,0,0,1.53-3Zm36.1,15.18H65.19l1.37-7.67L82,22.9H68.48l1.36-7.67h24.6L93.07,22.9l-14.95,11h13Zm33.14-20.76a10.59,10.59,0,0,1-.63,3.61A10.34,10.34,0,0,1,121.06,27l-.6.76h-8.27a4.08,4.08,0,0,0,1.37-3.12,2.17,2.17,0,0,0-.63-1.61,2.34,2.34,0,0,0-1.73-.63A4,4,0,0,0,108,24.27L104.9,41.58H95.59l4.66-26.35h8.65l-.65,3.67q3.12-4.44,7.56-4.44a7.49,7.49,0,0,1,5.34,1.7A6.15,6.15,0,0,1,122.93,20.82Zm12,9a12,12,0,0,0-.17,2c0,1.76,1,2.63,3,2.63a5.22,5.22,0,0,0,4-1.7l3.07-17.47h9.31l-4.82,27.23a19.16,19.16,0,0,1-5.5,11A14,14,0,0,1,134,57.52c-3.69,0-6.34-.68-8-2a6.59,6.59,0,0,1-2.44-5.31q0-4.66,5.76-8.27c-2.09-.51-3.4-1.55-4-3.13a8.3,8.3,0,0,1-.49-3,21.4,21.4,0,0,1,.27-3.35l3.07-17.25h9.31Zm.27,19.89q3.57,0,4.66-6.47l.55-3.18q-7.62,3.57-7.62,7.18a2.53,2.53,0,0,0,.63,1.78A2.28,2.28,0,0,0,135.25,49.69ZM200.5,15.23a19.89,19.89,0,0,1,.76,6.11,28.39,28.39,0,0,1-.93,7.31,25.66,25.66,0,0,1-2.82,6.66,14.37,14.37,0,0,1-5.26,5.09,15.2,15.2,0,0,1-7.75,2q-6.57,0-8.77-3.67a12.65,12.65,0,0,1-8.81,3.67c-4.39,0-7.4-.94-9-2.8A8.1,8.1,0,0,1,156.23,34a23.71,23.71,0,0,1,.44-4.27l2.58-14.52h9.31L166,29.8a7.56,7.56,0,0,0-.16,1.48q0,3.12,3.23,3.12a3.72,3.72,0,0,0,3.4-1.94,21.93,21.93,0,0,0,2-6.82l1.86-10.41h9.31L183,29.8a7.56,7.56,0,0,0-.16,1.48c0,2.08,1.07,3.12,3.23,3.12q5.7,0,5.7-11.94a49.12,49.12,0,0,0-.44-6.19l-.17-1Zm30.12,19.34a4.63,4.63,0,0,0,2.25-.55l-.27,6.19a9.58,9.58,0,0,1-6.3,2.14c-2.49,0-4.32-.66-5.51-2s-2.11-3.52-2.77-6.62l-.16-.77q-1.16.17-3.45.27l-1.48,8.33h-9.31L211,0h9.31l-3.18,18a11.28,11.28,0,0,1,8.77-3.56c2.48,0,4.32.61,5.5,1.84a6.72,6.72,0,0,1,1.78,4.9q0,5.91-6.19,9.26l.61,2A2.82,2.82,0,0,0,230.62,34.57Zm-9.47-12.66a6.68,6.68,0,0,0-5.26,2.8l-.6,3.61q8.1-.33,8.1-4.33a2,2,0,0,0-.57-1.5A2.25,2.25,0,0,0,221.15,21.91Zm41.52,11.23a1.27,1.27,0,0,0,1.45,1.43,5,5,0,0,0,2.44-.55l-.27,6.19a9.19,9.19,0,0,1-5.92,2.14q-6,0-6.68-4.39a8.9,8.9,0,0,1-8.06,4.39q-9,0-9-7.73a17.48,17.48,0,0,1,.27-2.9l1.15-6.41a13.65,13.65,0,0,1,4-7.86,11.56,11.56,0,0,1,8.22-2.93q5.07,0,6.87,2.35l.28-1.64h8.32l-3.06,17.25A3.68,3.68,0,0,0,262.67,33.14Zm-16.21-2.63a6.22,6.22,0,0,0-.11,1.37,2.5,2.5,0,0,0,.82,1.73,3.77,3.77,0,0,0,2.76.85,4.43,4.43,0,0,0,3.37-1.54l1.65-9.2c-.41-.91-1.35-1.37-2.85-1.37-2.81,0-4.46,1.35-4.93,4Z"/></g></g></svg>