<svg xmlns="http://www.w3.org/2000/svg" viewBox="0 0 319.7 57.96"><defs><style>.cls-1{fill:#fff;}</style></defs><g id="Layer_2" data-name="Layer 2"><g id="Layer_1-2" data-name="Layer 1"><path class="cls-1" d="M36.92,11.12H23.45L18,42H8.11l5.42-30.9H0L1.53,2.57H38.46Zm10.3,31.66q-11.4,0-11.39-7.88a13.46,13.46,0,0,1,.22-2.36l1.15-6.79A12.09,12.09,0,0,1,42,17.67Q46,14.85,52.43,14.85q11,0,11,8.32a18.15,18.15,0,0,1-.22,2.63l-.66,3.89H45.85L45.63,31a7.76,7.76,0,0,0-.11,1.21q0,3,3.56,3a3.27,3.27,0,0,0,2.25-.82,3.16,3.16,0,0,0,1.1-1.92l9.09.11Q59.71,42.79,47.22,42.78Zm6.57-16.43A7.39,7.39,0,0,0,54,24.62,2.48,2.48,0,0,0,53.3,23,2.84,2.84,0,0,0,51,22.19a4.4,4.4,0,0,0-2.85,1,5.45,5.45,0,0,0-1.78,3.12ZM77.46,42.78q-11.4,0-11.4-7.88a14.5,14.5,0,0,1,.22-2.36l1.15-6.79a11.87,11.87,0,0,1,4.8-8.06,16.93,16.93,0,0,1,9.94-2.84q11.67,0,11.67,8.1a11.29,11.29,0,0,1-.41,3.15A5.44,5.44,0,0,1,92.58,28l-.44.55H82.83a3.68,3.68,0,0,0,1.37-2.85,2.62,2.62,0,0,0-3-3,4.59,4.59,0,0,0-3,1A5.18,5.18,0,0,0,76.58,27l-.71,4a5.58,5.58,0,0,0-.11,1q0,2.91,3.62,2.91a3.38,3.38,0,0,0,2.16-.77,2.83,2.83,0,0,0,1.12-1.7l9.1.11Q89.95,42.79,77.46,42.78ZM125,35a4.62,4.62,0,0,0,2.25-.54l-.27,6.19a9,9,0,0,1-5.87,2.13q-7.44,0-7.45-6.24a14.5,14.5,0,0,1,.22-2.36L115,27.45a12,12,0,0,0,.16-2c0-1.75-.92-2.63-2.76-2.63a5.26,5.26,0,0,0-4.3,1.87L105.07,42H95.76L103.1.44h9.31l-3.12,17.69a9.89,9.89,0,0,1,7.56-3.23c3.68,0,6.08.82,7.17,2.47A6.22,6.22,0,0,1,125.17,21a19.5,19.5,0,0,1-.33,3.72l-1.47,8.16a3.4,3.4,0,0,0-.06.61C123.31,34.51,123.86,35,125,35Zm23.12-9.8c0-1.57-.76-2.36-2.27-2.36a4.78,4.78,0,0,0-3.76,1.7L139,42h-9.32l4.66-26.35H143l-.61,3.23a10.07,10.07,0,0,1,8.17-4q4.92,0,6.41,2.41a6.62,6.62,0,0,1,.93,3.51,22.24,22.24,0,0,1-.28,3.67l-1.48,8.43a4.55,4.55,0,0,0-.05.61c0,1,.55,1.47,1.64,1.47a4.62,4.62,0,0,0,2.25-.54l-.28,6.19a8.93,8.93,0,0,1-5.86,2.13q-7.44,0-7.45-6.24a14.5,14.5,0,0,1,.22-2.36l1.32-7.28A10.53,10.53,0,0,0,148.07,25.2Zm31.5-10.3q5.91,0,8.93,2.58a7,7,0,0,1,2.35,5.64,14.23,14.23,0,0,1-.27,2.63l-1.15,6.41q-1,5.81-4.85,8.21t-10.16,2.41q-6.36,0-9.31-2.41A6.61,6.61,0,0,1,162.92,35a16.17,16.17,0,0,1,.27-2.79l1.15-6.41Q166.26,14.91,179.57,14.9Zm1.48,11.94a7.51,7.51,0,0,0,.11-1.39,3.46,3.46,0,0,0-.71-1.89,2.8,2.8,0,0,0-2.5-1,4.11,4.11,0,0,0-3,1.17,5.54,5.54,0,0,0-1.54,3.15L172.72,31a7.63,7.63,0,0,0-.11,1.4,3.19,3.19,0,0,0,.71,1.83,2.89,2.89,0,0,0,2.5,1,4,4,0,0,0,3-1.23,5.63,5.63,0,0,0,1.54-3Zm23.23,6.74A1.27,1.27,0,0,0,205.73,35a5.06,5.06,0,0,0,2.44-.54l-.28,6.19A9.14,9.14,0,0,1,202,42.78c-3.33,0-5.48-.76-6.47-2.3a5.93,5.93,0,0,1-.93-3.23,18.48,18.48,0,0,1,.22-3.07l6-33.74h9.31l-5.75,32.48A3.67,3.67,0,0,0,204.28,33.58ZM227.94,14.9q5.91,0,8.93,2.58a7,7,0,0,1,2.35,5.64,14.23,14.23,0,0,1-.27,2.63l-1.15,6.41q-1,5.81-4.85,8.21t-10.16,2.41q-6.36,0-9.31-2.41A6.61,6.61,0,0,1,211.29,35a16.17,16.17,0,0,1,.27-2.79l1.15-6.41Q214.63,14.91,227.94,14.9Zm1.48,11.94a7.51,7.51,0,0,0,.11-1.39,3.46,3.46,0,0,0-.71-1.89,2.8,2.8,0,0,0-2.5-1,4.11,4.11,0,0,0-3,1.17,5.54,5.54,0,0,0-1.54,3.15L221.09,31a7.63,7.63,0,0,0-.11,1.4,3.19,3.19,0,0,0,.71,1.83,2.89,2.89,0,0,0,2.5,1,4,4,0,0,0,3-1.23,5.63,5.63,0,0,0,1.54-3ZM261.06,53.9A13.93,13.93,0,0,1,251.22,58c-3.69,0-6.34-.68-8-2a6.59,6.59,0,0,1-2.44-5.31q0-4.83,6.14-8.38c-3.11-1-4.66-3.34-4.66-7.07a17.65,17.65,0,0,1,.28-3l1.09-6.41a13.56,13.56,0,0,1,4.06-7.86A11.62,11.62,0,0,1,256,15q5.07,0,6.93,2.46l.33-1.75h8.16l-4.82,27.22A19.1,19.1,0,0,1,261.06,53.9Zm-8.58-3.78c2.37,0,3.93-2.15,4.66-6.46l.55-3.18q-7.62,3.57-7.62,7.18a2.53,2.53,0,0,0,.63,1.78A2.28,2.28,0,0,0,252.48,50.12ZM252.1,31a6.22,6.22,0,0,0-.11,1.37,2.5,2.5,0,0,0,.82,1.73,3.78,3.78,0,0,0,2.77.85A4.48,4.48,0,0,0,259,33.36l1.64-9.2a3,3,0,0,0-2.9-1.37,4.81,4.81,0,0,0-3.35,1.09,5.1,5.1,0,0,0-1.53,3ZM284.53,35a4.56,4.56,0,0,0,2.24-.54l-.27,6.19a9,9,0,0,1-5.86,2.13c-3.33,0-5.48-.76-6.47-2.3a6,6,0,0,1-1-3.26,18.27,18.27,0,0,1,.22-3l3.28-18.51H286l-3.07,17.25a3.4,3.4,0,0,0-.06.61Q282.88,35,284.53,35ZM277.79,6.74q0-3.51,1.56-5.12A6.47,6.47,0,0,1,284.2,0q4.6,0,4.6,4.05,0,3.45-1.56,5c-1,1.06-2.68,1.59-4.9,1.59Q277.8,10.68,277.79,6.74Zm38,26.84A1.27,1.27,0,0,0,317.26,35a5,5,0,0,0,2.44-.54l-.28,6.19a9.14,9.14,0,0,1-5.91,2.13q-6,0-6.69-4.38a8.9,8.9,0,0,1-8.05,4.38q-9,0-9-7.72a17.38,17.38,0,0,1,.27-2.9l1.15-6.41a13.59,13.59,0,0,1,4-7.86A11.55,11.55,0,0,1,303.45,15q5.07,0,6.88,2.35l.27-1.64h8.33l-3.07,17.25A3.67,3.67,0,0,0,315.81,33.58ZM299.59,31a6.91,6.91,0,0,0-.11,1.37,2.54,2.54,0,0,0,.82,1.73,3.78,3.78,0,0,0,2.77.85,4.46,4.46,0,0,0,3.37-1.54l1.64-9.2c-.4-.91-1.35-1.37-2.85-1.37q-4.22,0-4.93,4.05Z"/></g></g></svg>